<?xml version="1.0" encoding="utf-8"?>
<!-- Generator: Adobe Illustrator 17.1.0, SVG Export Plug-In . SVG Version: 6.00 Build 0)  -->
<!DOCTYPE svg PUBLIC "-//W3C//DTD SVG 1.1//EN" "http://www.w3.org/Graphics/SVG/1.1/DTD/svg11.dtd">
<svg version="1.1" id="Stickers" xmlns="http://www.w3.org/2000/svg" xmlns:xlink="http://www.w3.org/1999/xlink" x="0px" y="0px"
	 width="76px" height="30px" viewBox="0 0 76 30" enable-background="new 0 0 76 30" xml:space="preserve">
<symbol  id="Sticker_x5F_PI_x5F_20m_x5F_Normal" viewBox="-30.957 -10 61.914 20">
	<g id="BG_6_">
	</g>
	<path id="Name_3_" fill="#595959" d="M-6.877-4l2.084,2.965l-1.928,2.739h1.209l0.875-1.337c0.164-0.255,0.297-0.468,0.397-0.64
		c0.157,0.236,0.303,0.446,0.435,0.628l0.962,1.349h1.155l-1.972-2.686L-1.537-4h-1.188l-1.171,1.772L-4.207-1.75L-5.705-4H-6.877z
		 M4.301-3.07V-4h-5.205c-0.007,0.232,0.031,0.457,0.113,0.672c0.133,0.354,0.345,0.703,0.637,1.047
		C0.137-1.938,0.559-1.54,1.11-1.089c0.856,0.702,1.435,1.258,1.735,1.668s0.451,0.798,0.451,1.163c0,0.383-0.137,0.706-0.412,0.969
		c-0.273,0.264-0.631,0.395-1.07,0.395c-0.466,0-0.838-0.139-1.117-0.418s-0.422-0.666-0.425-1.16l-0.993,0.102
		c0.067,0.741,0.324,1.306,0.768,1.694s1.04,0.583,1.789,0.583c0.755,0,1.354-0.209,1.793-0.629C4.07,2.859,4.29,2.34,4.29,1.721
		c0-0.315-0.064-0.625-0.193-0.93S3.754,0.166,3.455-0.17c-0.299-0.337-0.796-0.799-1.49-1.387c-0.58-0.486-0.953-0.816-1.117-0.99
		C0.683-2.721,0.547-2.896,0.439-3.07H4.301z M5.557-0.117c0,0.932,0.096,1.681,0.288,2.248C6.036,2.698,6.32,3.137,6.698,3.444
		s0.854,0.462,1.427,0.462c0.422,0,0.793-0.085,1.111-0.255s0.582-0.416,0.789-0.736c0.208-0.32,0.371-0.711,0.489-1.171
		s0.177-1.08,0.177-1.861c0-0.924-0.094-1.669-0.284-2.236S9.934-3.36,9.556-3.67S8.701-4.135,8.125-4.135
		c-0.76,0-1.355,0.272-1.789,0.816C5.816-2.662,5.557-1.596,5.557-0.117z M6.551-0.117c0-1.292,0.151-2.152,0.454-2.58
		C7.307-3.125,7.681-3.34,8.125-3.34c0.443,0,0.816,0.215,1.119,0.645s0.454,1.289,0.454,2.578c0,1.297-0.151,2.158-0.454,2.584
		s-0.68,0.639-1.131,0.639c-0.443,0-0.798-0.188-1.063-0.563C6.717,2.063,6.551,1.176,6.551-0.117z M12.19,1.704h1.504l1.499-4.565
		l1.664,4.565h1.392V-4h-0.967v4.592L15.596-4H14.73l-1.595,4.813V-4H12.19V1.704z M23.851-2.163l0.999-0.124
		C24.691-2.87,24.4-3.323,23.975-3.646c-0.427-0.322-0.971-0.483-1.633-0.483c-0.835,0-1.496,0.257-1.985,0.771
		c-0.488,0.514-0.733,1.234-0.733,2.162c0,0.96,0.248,1.704,0.742,2.234s1.135,0.795,1.922,0.795c0.764,0,1.387-0.26,1.869-0.778
		c0.484-0.52,0.726-1.25,0.726-2.191c0-0.058-0.002-0.144-0.005-0.258h-4.254c0.035-0.627,0.213-1.107,0.531-1.439
		c0.318-0.334,0.717-0.5,1.192-0.5c0.354,0,0.657,0.093,0.907,0.279C23.505-2.868,23.703-2.571,23.851-2.163z M20.676-0.6h3.186
		c-0.043,0.479-0.164,0.839-0.365,1.079c-0.309,0.372-0.707,0.559-1.197,0.559c-0.444,0-0.818-0.148-1.12-0.446
		C20.876,0.295,20.709-0.103,20.676-0.6z M30.006-1.91l0.951-0.124c-0.104-0.655-0.37-1.168-0.798-1.539
		c-0.429-0.37-0.954-0.556-1.577-0.556c-0.78,0-1.408,0.255-1.882,0.766c-0.475,0.51-0.712,1.241-0.712,2.193
		c0,0.616,0.102,1.155,0.307,1.617c0.203,0.462,0.514,0.809,0.932,1.039c0.417,0.231,0.871,0.347,1.361,0.347
		c0.619,0,1.126-0.156,1.52-0.47c0.395-0.313,0.646-0.759,0.758-1.335l-0.939-0.146c-0.09,0.384-0.248,0.672-0.476,0.865
		s-0.503,0.29-0.825,0.29c-0.486,0-0.883-0.175-1.187-0.523c-0.304-0.35-0.456-0.901-0.456-1.657c0-0.767,0.146-1.323,0.439-1.67
		c0.294-0.348,0.678-0.521,1.15-0.521c0.379,0,0.695,0.116,0.95,0.35C29.777-2.752,29.938-2.395,30.006-1.91z"/>
	<path id="Icon_PI_3_" fill="#007344" d="M-14.457,4c0.276,0,0.5-0.224,0.5-0.5s-0.224-0.5-0.5-0.5s-0.5,0.224-0.5,0.5
		S-14.733,4-14.457,4 M-14.457,5c-0.828,0-1.5-0.672-1.5-1.5s0.672-1.5,1.5-1.5s1.5,0.672,1.5,1.5S-13.629,5-14.457,5L-14.457,5z
		 M-13.104,8.146l-0.707,0.707l-6-6l0.707-0.707L-13.104,8.146z M-18.457,8c0.276,0,0.5-0.224,0.5-0.5s-0.224-0.5-0.5-0.5
		s-0.5,0.224-0.5,0.5S-18.733,8-18.457,8 M-18.457,9c-0.828,0-1.5-0.672-1.5-1.5s0.672-1.5,1.5-1.5s1.5,0.672,1.5,1.5
		S-17.629,9-18.457,9L-18.457,9z M-11.957-1.5c0,0.202-0.122,0.385-0.309,0.462c-0.188,0.076-0.401,0.034-0.545-0.108l-2-2
		l0.707-0.707l1.146,1.146V-9h1V-1.5z M-18.457-2c0.827,0,1.5-0.673,1.5-1.5v-3c0-0.827-0.673-1.5-1.5-1.5s-1.5,0.673-1.5,1.5v3
		C-19.957-2.673-19.284-2-18.457-2 M-18.457-1c-1.381,0-2.5-1.119-2.5-2.5v-3c0-1.381,1.119-2.5,2.5-2.5s2.5,1.119,2.5,2.5v3
		C-15.957-2.119-17.076-1-18.457-1L-18.457-1z M-21.957-8h-1v-1h1V-8L-21.957-8z M-27.457,6c1.378,0,2.5-1.122,2.5-2.5v-9
		c0-1.378-1.122-2.5-2.5-2.5s-2.5,1.122-2.5,2.5v9C-29.957,4.878-28.836,6-27.457,6 M-27.457,7c-1.933,0-3.5-1.567-3.5-3.5v-9
		c0-1.933,1.567-3.5,3.5-3.5s3.5,1.567,3.5,3.5v9C-23.957,5.433-25.524,7-27.457,7L-27.457,7z"/>
	<g id="Border_icon_6_" opacity="0.15">
		<polygon fill="none" points="-10.957,-10 -30.957,-10 -30.957,10 -10.957,10 		"/>
	</g>
</symbol>
<use xlink:href="#Sticker_x5F_PI_x5F_20m_x5F_Normal"  width="61.914" height="20" x="-30.957" y="-10" transform="matrix(1 0 0 -1 37.957 15)" overflow="visible"/>
</svg>
