<svg id="Stickers" xmlns="http://www.w3.org/2000/svg" xmlns:xlink="http://www.w3.org/1999/xlink" width="76" height="30" viewBox="0 0 76 30">
  <defs>
    <style>
      .cls-1 {
        fill: #fedc01;
      }

      .cls-2, .cls-3 {
        fill: none;
      }

      .cls-2 {
        opacity: 0.25;
      }

      .cls-4 {
        fill: #595959;
      }
    </style>
    <symbol id="Icon_Star" data-name="Icon_Star" viewBox="0 0 20 20">
      <g id="Icon">
        <path class="cls-1" d="M10,3.3l2.2,4.4a1,1,0,0,0,.8.5l4.9.7-3.5,3.5a1,1,0,0,0-.3.9l.8,4.9-4.4-2.3H9.5L5.1,18.2,6,13.3a1,1,0,0,0-.3-.9L2.2,9l4.9-.7a1,1,0,0,0,.8-.5L10,3.3M10,1,6.9,7.3,0,8.3l5,4.9L3.8,20,10,16.8,16.2,20,15,13.1l5-4.9-6.9-1L10,1Z"/>
      </g>
      <rect id="Border_Icon" data-name="Border Icon" class="cls-2" width="20" height="20"/>
    </symbol>
  </defs>
  <title>Sprite-Sticker</title>
  <g id="Stickers_Star">
    <g id="Stickers_Star_Normal">
      <g id="BG">
        <rect class="cls-3" width="76" height="30" rx="4" ry="4"/>
      </g>
      <g id="Name">
        <g>
          <path class="cls-4" d="M35,19l3-7.9h1.1L42.4,19H41.2l-.9-2.4H37L36.1,19Zm2.3-3.2h2.7l-.8-2.2L38.6,12a10.1,10.1,0,0,1-.4,1.5Z"/>
          <path class="cls-4" d="M43.3,13.3h1v2.5l.6-.2a3.9,3.9,0,0,0,.5-1l.5-.9.4-.3h.9v.8h-.8l-.3.7-.4.8-.6.4a2.3,2.3,0,0,1,1.2,1.2L47.5,19H46.4l-1-1.8-.6-.7-.6-.2V19h-1Z"/>
          <path class="cls-4" d="M48.3,13.3h1v4.9H52V13.3h1v4.9h.6v2.4h-.8V19H48.3Z"/>
          <path class="cls-4" d="M54.9,13.3h1v4.4l2.7-4.4h1V19h-1V14.7L55.9,19h-1Z"/>
          <path class="cls-4" d="M65.7,13.3V19h-1V16.8H63.4a2.8,2.8,0,0,0-.7.8L61.9,19H60.7l1-1.5a1.7,1.7,0,0,1,1-.8,1.8,1.8,0,0,1-1.2-.6A1.7,1.7,0,0,1,61,15a1.5,1.5,0,0,1,.5-1.2,2.2,2.2,0,0,1,1.5-.5Zm-1,.8H63.4a1.6,1.6,0,0,0-1.1.3.9.9,0,0,0-.2.6.8.8,0,0,0,.4.7,2.5,2.5,0,0,0,1.3.2h1.1Z"/>
        </g>
      </g>
      <use width="20" height="20" transform="translate(11 5)" xlink:href="#Icon_Star"/>
    </g>
  </g>
</svg>
